<svg width="34" height="31" viewBox="0 0 34 31" fill="none" xmlns="http://www.w3.org/2000/svg">
<path d="M0 7H3.0374L6.42424 23.7756C6.45112 24.4521 6.98872 24.9932 7.66071 24.9932H23.9498" stroke="#202020"/>
<path d="M3.5 9.81398H22.9015C23.3316 9.81398 23.7079 9.97632 23.9767 10.301C24.2186 10.6257 24.3261 11.0316 24.2455 11.4645L22.7133 19.5006C22.5521 20.3664 21.7188 21.0428 20.8586 21.0699H5.86646" stroke="#202020"/>
<path d="M8.34888 28.8354C8.34888 27.9179 9.09579 27.1708 9.99925 27.1708C10.9027 27.1708 11.6496 27.9179 11.6496 28.8354C11.6496 29.7529 10.9027 30.5 9.99925 30.5C9.09579 30.5 8.34888 29.7529 8.34888 28.8354Z" stroke="#202020"/>
<path d="M18.2676 28.8354C18.2676 27.9179 19.0145 27.1708 19.918 27.1708C20.8214 27.1708 21.5683 27.9179 21.5683 28.8354C21.5683 29.7529 20.8214 30.5 19.918 30.5C19.0145 30.5 18.2676 29.7529 18.2676 28.8354Z" stroke="#202020"/>
<circle cx="26" cy="8" r="8" fill="#CC0000"/>
<path d="M26.9738 7.706C27.3938 7.82 27.7178 8.018 27.9458 8.3C28.1798 8.576 28.2968 8.909 28.2968 9.299C28.2968 9.845 28.0898 10.277 27.6758 10.595C27.2618 10.907 26.7038 11.063 26.0018 11.063C25.2998 11.063 24.7418 10.907 24.3278 10.595C23.9138 10.277 23.7068 9.845 23.7068 9.299C23.7068 8.909 23.8238 8.573 24.0578 8.291C24.2978 8.009 24.6248 7.814 25.0388 7.706C24.6548 7.592 24.3608 7.406 24.1568 7.148C23.9528 6.884 23.8508 6.575 23.8508 6.221C23.8508 5.879 23.9408 5.582 24.1208 5.33C24.3008 5.072 24.5528 4.874 24.8768 4.736C25.2068 4.592 25.5818 4.52 26.0018 4.52C26.4218 4.52 26.7938 4.592 27.1178 4.736C27.4478 4.874 27.7028 5.072 27.8828 5.33C28.0628 5.582 28.1528 5.879 28.1528 6.221C28.1528 6.575 28.0478 6.884 27.8378 7.148C27.6338 7.406 27.3458 7.592 26.9738 7.706ZM24.5888 6.275C24.5888 6.617 24.7148 6.896 24.9668 7.112C25.2248 7.322 25.5698 7.451 26.0018 7.499C26.4338 7.451 26.7758 7.322 27.0278 7.112C27.2858 6.896 27.4148 6.617 27.4148 6.275C27.4148 5.921 27.2888 5.642 27.0368 5.438C26.7908 5.234 26.4458 5.132 26.0018 5.132C25.5578 5.132 25.2098 5.234 24.9578 5.438C24.7118 5.642 24.5888 5.921 24.5888 6.275ZM26.0018 10.451C26.5058 10.451 26.8928 10.349 27.1628 10.145C27.4328 9.941 27.5678 9.644 27.5678 9.254C27.5678 8.9 27.4238 8.618 27.1358 8.408C26.8538 8.192 26.4758 8.06 26.0018 8.012C25.5278 8.06 25.1468 8.192 24.8588 8.408C24.5768 8.618 24.4358 8.9 24.4358 9.254C24.4358 9.644 24.5708 9.941 24.8408 10.145C25.1108 10.349 25.4978 10.451 26.0018 10.451Z" fill="white"/>
</svg>
